<svg xmlns="http://www.w3.org/2000/svg" width="10.932" height="15.093" viewBox="0 0 10.932 15.093">
    <defs>
        <style>
            .cls-1{fill:#818181}
        </style>
    </defs>
    <g id="maps-and-flags" transform="translate(-70.573)">
        <g id="Group_56" transform="translate(70.573)">
            <g id="Group_55">
                <path id="Path_44" d="M76.039 0a5.472 5.472 0 0 0-5.466 5.466c0 3.74 4.892 9.232 5.1 9.464a.492.492 0 0 0 .732 0c.208-.232 5.1-5.723 5.1-9.464A5.472 5.472 0 0 0 76.039 0zm0 13.847c-1.646-1.956-4.482-5.814-4.482-8.381a4.482 4.482 0 1 1 8.964 0c0 2.567-2.835 6.425-4.482 8.381z" class="cls-1" transform="translate(-70.573)"/>
            </g>
        </g>
        <g id="Group_58" transform="translate(73.289 2.716)">
            <g id="Group_57">
                <path id="Path_45" d="M165.458 92.134a2.75 2.75 0 1 0 2.75 2.75 2.753 2.753 0 0 0-2.75-2.75zm0 4.516a1.766 1.766 0 1 1 1.766-1.766 1.768 1.768 0 0 1-1.766 1.766z" class="cls-1" transform="translate(-162.708 -92.134)"/>
            </g>
        </g>
    </g>
</svg>
