<svg xmlns="http://www.w3.org/2000/svg" width="16.867" height="14.5" viewBox="0 0 16.867 14.5">
    <defs>
        <style>
            .cls-1{fill:#818181}
        </style>
    </defs>
    <g id="money_1_" transform="translate(0 -28.588)">
        <g id="Group_60" transform="translate(0 28.588)">
            <g id="Group_59">
                <path id="Path_46" d="M16.843 36.793l-3.185-8a.331.331 0 0 0-.43-.185L.309 33.756a.324.324 0 0 0-.132.105.327.327 0 0 0-.177.288v8.609a.331.331 0 0 0 .331.331h13.906a.331.331 0 0 0 .331-.331v-4.7l2.09-.832a.331.331 0 0 0 .185-.433zm-2.937 5.633H.662V34.48h13.244zM5.524 33.82l5.544-2.209a2.634 2.634 0 0 0 1.9.818l.553 1.391zm9.044 3.525v-3.2a.331.331 0 0 0-.331-.331h-.005l-.7-1.762a.274.274 0 0 0-.027-.042.327.327 0 0 0-.346-.255 1.98 1.98 0 0 1-1.736-.748.328.328 0 0 0-.423-.07.371.371 0 0 0-.047.009l-6.768 2.7a.327.327 0 0 0-.185.172H1.944l11.222-4.468 2.94 7.382z" class="cls-1" transform="translate(0 -28.588)"/>
                <path id="Path_47" d="M32.236 191.994a1.98 1.98 0 0 1 1.337 1.335.331.331 0 0 0 .317.236.3.3 0 0 0 .051-.008.311.311 0 0 0 .045.009h7.946a.28.28 0 0 0 .04-.008.308.308 0 0 0 .372-.227 1.98 1.98 0 0 1 1.337-1.337.327.327 0 0 0 .227-.364.333.333 0 0 0 .01-.049v-2.649a.3.3 0 0 0-.01-.049.326.326 0 0 0-.227-.364 1.978 1.978 0 0 1-1.336-1.337.327.327 0 0 0-.367-.227.316.316 0 0 0-.047-.009h-7.944a.309.309 0 0 0-.049.01.327.327 0 0 0-.364.227 1.98 1.98 0 0 1-1.337 1.336.327.327 0 0 0-.227.364.335.335 0 0 0-.009.049v2.649a.308.308 0 0 0 .009.046.328.328 0 0 0 .226.367zm.426-2.928a2.627 2.627 0 0 0 1.459-1.459H41.8a2.628 2.628 0 0 0 1.459 1.459v2.38A2.63 2.63 0 0 0 41.8 192.9h-7.679a2.63 2.63 0 0 0-1.459-1.459z" class="cls-1" transform="translate(-30.676 -180.391)"/>
                <path id="Path_48" d="M129.987 222.918a1.987 1.987 0 1 0-1.987-1.986 1.987 1.987 0 0 0 1.987 1.986zm0-3.311a1.324 1.324 0 1 1-1.324 1.324 1.324 1.324 0 0 1 1.324-1.324z" class="cls-1" transform="translate(-122.702 -211.067)"/>
                <path id="Path_49" d="M76.5 255.938a.5.5 0 1 0-.5-.5.5.5 0 0 0 .5.5zm0-.662a.166.166 0 1 1-.166.165.166.166 0 0 1 .166-.165z" class="cls-1" transform="translate(-72.855 -245.577)"/>
                <path id="Path_50" d="M252.5 255.938a.5.5 0 1 0-.5-.5.5.5 0 0 0 .5.5zm0-.662a.166.166 0 1 1-.166.165.166.166 0 0 1 .166-.165z" class="cls-1" transform="translate(-241.57 -245.577)"/>
            </g>
        </g>
    </g>
</svg>
